<mxfile host="app.diagrams.net" modified="2023-07-14T12:07:17.276Z" agent="Mozilla/5.0 (Macintosh; Intel Mac OS X 10_15_7) AppleWebKit/605.1.15 (KHTML, like Gecko) Version/16.5.1 Safari/605.1.15" etag="ivraLnEQtrlCayro6aEw" version="21.6.2" type="device">
  <diagram id="cgcZXUvNZqEPajVjhLZJ" name="Page-1">
    <mxGraphModel dx="677" dy="646" grid="1" gridSize="10" guides="1" tooltips="1" connect="1" arrows="1" fold="1" page="0" pageScale="1" pageWidth="850" pageHeight="1100" math="0" shadow="0">
      <root>
        <mxCell id="0" />
        <mxCell id="1" parent="0" />
        <mxCell id="xrChgnnaIUgmmJ2lnrL3-1" value="&lt;font style=&quot;font-size: 16px;&quot; face=&quot;LMRoman10-Regular&quot;&gt;Kernel Collection Header&lt;/font&gt;" style="rounded=0;whiteSpace=wrap;html=1;" parent="1" vertex="1">
          <mxGeometry x="360" y="470" width="280" height="30" as="geometry" />
        </mxCell>
        <mxCell id="xrChgnnaIUgmmJ2lnrL3-2" value="&lt;font style=&quot;font-size: 16px;&quot; face=&quot;LMRoman10-Regular&quot;&gt;Kernel&lt;/font&gt;" style="rounded=0;whiteSpace=wrap;html=1;" parent="1" vertex="1">
          <mxGeometry x="360" y="500" width="280" height="30" as="geometry" />
        </mxCell>
        <mxCell id="xrChgnnaIUgmmJ2lnrL3-3" value="&lt;font style=&quot;font-size: 16px;&quot; face=&quot;LMRoman10-Regular&quot;&gt;Kernel Extension Info Dictionary&lt;/font&gt;" style="rounded=0;whiteSpace=wrap;html=1;" parent="1" vertex="1">
          <mxGeometry x="360" y="530" width="280" height="30" as="geometry" />
        </mxCell>
        <mxCell id="xrChgnnaIUgmmJ2lnrL3-4" value="&lt;font style=&quot;font-size: 16px;&quot; face=&quot;LMRoman10-Regular&quot;&gt;Kernel Extension 1&lt;/font&gt;" style="rounded=0;whiteSpace=wrap;html=1;" parent="1" vertex="1">
          <mxGeometry x="360" y="560" width="280" height="30" as="geometry" />
        </mxCell>
        <mxCell id="xrChgnnaIUgmmJ2lnrL3-5" value="&lt;font style=&quot;font-size: 16px;&quot; face=&quot;LMRoman10-Regular&quot;&gt;Kernel Extension 2&lt;/font&gt;" style="rounded=0;whiteSpace=wrap;html=1;" parent="1" vertex="1">
          <mxGeometry x="360" y="590" width="280" height="30" as="geometry" />
        </mxCell>
        <mxCell id="xrChgnnaIUgmmJ2lnrL3-6" value="&lt;span style=&quot;caret-color: rgb(34, 34, 34); color: rgb(34, 34, 34); font-family: LMRoman10-Regular; font-size: 20.57px; text-align: left;&quot;&gt;â€¦&lt;/span&gt;" style="rounded=0;whiteSpace=wrap;html=1;" parent="1" vertex="1">
          <mxGeometry x="360" y="620" width="280" height="30" as="geometry" />
        </mxCell>
        <mxCell id="xrChgnnaIUgmmJ2lnrL3-7" value="&lt;span style=&quot;font-family: LMRoman10-Regular; font-size: 16px;&quot;&gt;Kernel Extension n&lt;/span&gt;" style="rounded=0;whiteSpace=wrap;html=1;" parent="1" vertex="1">
          <mxGeometry x="360" y="650" width="280" height="30" as="geometry" />
        </mxCell>
        <mxCell id="xrChgnnaIUgmmJ2lnrL3-8" value="&lt;span style=&quot;font-family: LMRoman10-Regular; font-size: 16px;&quot;&gt;Unified Linker Info&lt;/span&gt;" style="rounded=0;whiteSpace=wrap;html=1;" parent="1" vertex="1">
          <mxGeometry x="360" y="680" width="280" height="30" as="geometry" />
        </mxCell>
        <mxCell id="9WwLicE4BzY7URrSolqI-1" value="&lt;b&gt;Apple Kernel Collection&lt;/b&gt;" style="text;html=1;strokeColor=none;fillColor=none;align=center;verticalAlign=middle;whiteSpace=wrap;rounded=0;fontFamily=LMRoman10-Regular;fontSize=16;fontColor=default;" vertex="1" parent="1">
          <mxGeometry x="360" y="440" width="280" height="30" as="geometry" />
        </mxCell>
      </root>
    </mxGraphModel>
  </diagram>
</mxfile>
